# xmcd
#
# Track frame offsets: 
#        150
#        16587
#        34537
#        51000
#        67425
#        88505
#        104047
#        124350
#        144342
#        164540
#
# Disc length: 2369 seconds
#
# Revision: 8
# Processed by: cddbd v1.5.2PL0 Copyright (c) Steve Scherf et al.
# Submitted via: ExactAudioCopy v0.99pb4
#
DISCID=89093f0a
DTITLE=Procol Harum - Procol's Ninth
DYEAR=1975
DGENRE=Pop
TTITLE0=Pandora's Box
TTITLE1=Fool's Gold
TTITLE2=Taking The Time
TTITLE3=The Unquiet Zone
TTITLE4=The Final Thrust
TTITLE5=I Keep Forgetting
TTITLE6=Without A Doubt
TTITLE7=The Pipers Tune
TTITLE8=Typewriter Torment
TTITLE9=Eight Days A Week
EXTD=Gary Brooker: Voice, Piano and Music\nMike Grabham: Guitars\nAlan
EXTD=Cartwright: Bass\nB. J. Wilson: Drums\nChris Chopping: Organ\nKe
EXTD=ith Reid: Words\n\nProduced by Jerry Leiber and Mike Stoller\n\nrel
EXTD=eased 1975, CD released1995
EXTT0=
EXTT1=
EXTT2=
EXTT3=
EXTT4=
EXTT5=By Jerry Leiber and Mike Stoller\nPublisched by Trio Music Except
EXTT6=
EXTT7=
EXTT8=
EXTT9=By John Lennen and Paul McCartney\nPublished by Nothern Songs
PLAYORDER=
